<svg width="334.24501953124997px" height="119.6199951171875px" xmlns="http://www.w3.org/2000/svg" viewBox="82.87749023437502 15.19000244140625 334.24501953124997 119.6199951171875" style="background: rgba(0, 0, 0, 0);" preserveAspectRatio="xMidYMid"><defs><filter id="editing-extrusion" x="-100%" y="-100%" width="300%" height="300%"><feFlood result="color1" flood-color="#444444"></feFlood><feConvolveMatrix order="1,1" divisor="1" kernelMatrix="1" in="SourceAlpha" result="extrude"></feConvolveMatrix><feComposite in="color1" in2="extrude" result="comp-extrude" operator="in"></feComposite><feOffset dx="0.5" dy="0.5" in="comp-extrude" result="offset-extrude"></feOffset><feMerge><feMergeNode in="offset-extrude"></feMergeNode><feMergeNode in="SourceGraphic"></feMergeNode></feMerge></filter></defs><g filter="url(#editing-extrusion)"><g transform="translate(131.7300033569336, 104.44000053405762)"><path d="M3.84 0.19L3.84 0.19Q3.33 0.19 3.04-0.22L3.04-0.22L3.04-0.22Q2.75-0.64 2.75-1.22L2.75-1.22L2.75-1.22Q2.82-2.18 3.14-2.37L3.14-2.37L3.14-2.37Q3.46-2.56 4.35-2.56L4.35-2.56L4.35-2.56Q6.21-2.56 7.10-3.23L7.10-3.23L7.10-3.23Q8-3.90 8.22-4.90L8.22-4.90L8.22-4.90Q8.45-5.89 8.51-7.49L8.51-7.49L8.51-32.90L8.51-32.90Q8.45-34.50 8.22-35.49L8.22-35.49L8.22-35.49Q8-36.48 7.10-37.15L7.10-37.15L7.10-37.15Q6.21-37.82 4.35-37.82L4.35-37.82L3.97-37.82L3.97-37.82Q3.33-37.82 3.07-38.05L3.07-38.05L3.07-38.05Q2.82-38.27 2.75-39.17L2.75-39.17L2.75-39.17Q2.75-39.74 3.04-40.16L3.04-40.16L3.04-40.16Q3.33-40.58 3.84-40.58L3.84-40.58L3.84-40.58Q8.06-40.38 11.46-40.38L11.46-40.38L21.44-40.38L21.44-40.38Q27.58-40.38 32.61-37.92L32.61-37.92L32.61-37.92Q37.63-35.46 40.54-30.85L40.54-30.85L40.54-30.85Q43.46-26.24 43.46-19.97L43.46-19.97L43.46-19.97Q43.46-13.44 40.16-8.93L40.16-8.93L40.16-8.93Q36.86-4.42 31.58-2.21L31.58-2.21L31.58-2.21Q26.30 0 20.29 0L20.29 0L11.46 0L11.46 0Q8.06 0 3.84 0.19L3.84 0.19ZM21.25-2.37L21.25-2.37Q28.74-2.37 32.22-7.01L32.22-7.01L32.22-7.01Q35.71-11.65 35.71-19.97L35.71-19.97L35.71-19.97Q35.71-25.22 33.82-29.34L33.82-29.34L33.82-29.34Q31.94-33.47 28.35-35.78L28.35-35.78L28.35-35.78Q24.77-38.08 19.84-38.08L19.84-38.08L14.85-38.02L14.85-6.72L14.85-6.72Q14.85-4.22 16.35-3.30L16.35-3.30L16.35-3.30Q17.86-2.37 21.25-2.37L21.25-2.37ZM64.19 0.77L64.19 0.77Q59.39 0.77 56.03-1.28L56.03-1.28L56.03-1.28Q52.67-3.33 50.94-6.85L50.94-6.85L50.94-6.85Q49.22-10.37 49.22-14.66L49.22-14.66L49.22-14.66Q49.22-18.43 50.98-21.92L50.98-21.92L50.98-21.92Q52.74-25.41 56-27.58L56-27.58L56-27.58Q59.26-29.76 63.49-29.76L63.49-29.76L63.49-29.76Q69.18-29.76 72.26-26.85L72.26-26.85L72.26-26.85Q75.33-23.94 75.78-19.01L75.78-19.01L75.78-19.01Q75.78-16.90 74.62-16.13L74.62-16.13L74.62-16.13Q73.47-15.36 71.30-15.36L71.30-15.36L55.74-15.36L55.74-15.36Q55.74-9.41 58.21-5.92L58.21-5.92L58.21-5.92Q60.67-2.43 65.86-2.43L65.86-2.43L65.86-2.43Q68.61-2.43 70.53-3.62L70.53-3.62L70.53-3.62Q72.45-4.80 74.18-7.62L74.18-7.62L74.18-7.62Q74.50-7.94 74.82-7.94L74.82-7.94L74.82-7.94Q75.26-7.94 75.58-7.68L75.58-7.68L75.58-7.68Q76.22-7.30 76.22-6.53L76.22-6.53L76.22-6.53Q76.22-6.14 76.10-5.95L76.10-5.95L76.10-5.95Q74.11-2.75 71.07-0.99L71.07-0.99L71.07-0.99Q68.03 0.77 64.19 0.77L64.19 0.77ZM55.74-17.79L66.18-17.79L66.18-17.79Q69.44-17.79 69.63-20.48L69.63-20.48L69.63-20.48Q69.63-23.42 68.03-25.47L68.03-25.47L68.03-25.47Q66.43-27.52 63.49-27.52L63.49-27.52L63.49-27.52Q60.22-27.52 58.11-24.93L58.11-24.93L58.11-24.93Q56-22.34 55.74-17.79L55.74-17.79ZM94.78 0.64L94.78 0.64Q93.12-2.94 90.11-10.82L90.11-10.82L90.11-10.82Q89.86-11.46 88.35-15.42L88.35-15.42L88.35-15.42Q86.85-19.39 85.50-22.08L85.50-22.08L85.50-22.08Q84.42-24.58 83.46-25.50L83.46-25.50L83.46-25.50Q82.50-26.43 80.64-26.69L80.64-26.69L80.64-26.69Q80.45-26.75 79.94-26.82L79.94-26.82L79.94-26.82Q79.42-26.88 79.30-27.14L79.30-27.14L79.30-27.14Q79.17-27.39 79.17-28.03L79.17-28.03L79.17-28.03Q79.17-28.80 79.58-28.99L79.58-28.99L79.58-28.99Q80-29.18 80.61-29.22L80.61-29.22L80.61-29.22Q81.22-29.25 81.41-29.25L81.41-29.25L81.41-29.25Q85.31-29.44 87.55-28.13L87.55-28.13L87.55-28.13Q89.79-26.82 91.26-23.55L91.26-23.55L91.26-23.55Q91.33-23.42 93.76-17.41L93.76-17.41L93.76-17.41Q96.70-9.92 97.98-7.23L97.98-7.23L98.18-7.23L104.51-24L104.51-24Q104.83-25.09 104.83-25.54L104.83-25.54L104.83-25.54Q104.83-26.24 104.19-26.50L104.19-26.50L104.19-26.50Q103.55-26.75 102.08-26.75L102.08-26.75L101.70-26.75L101.70-26.75Q101.18-26.75 100.96-26.94L100.96-26.94L100.96-26.94Q100.74-27.14 100.67-27.90L100.67-27.90L100.67-27.90Q100.67-28.35 100.90-28.77L100.90-28.77L100.90-28.77Q101.12-29.18 101.57-29.18L101.57-29.18L101.57-29.18Q105.22-28.99 107.78-28.99L107.78-28.99L107.78-28.99Q108.80-28.99 111.74-29.12L111.74-29.12L113.09-29.18L113.09-29.18Q113.54-29.18 113.79-28.77L113.79-28.77L113.79-28.77Q114.05-28.35 114.05-27.90L114.05-27.90L114.05-27.90Q113.98-27.14 113.73-26.94L113.73-26.94L113.73-26.94Q113.47-26.75 112.96-26.75L112.96-26.75L112.96-26.75Q110.59-26.75 109.31-25.98L109.31-25.98L109.31-25.98Q108.03-25.22 107.14-22.98L107.14-22.98L107.14-22.98Q105.66-19.26 101.63-9.34L101.63-9.34L101.63-9.34Q97.60 0.58 97.47 0.64L97.47 0.64L94.78 0.64ZM116.48 12.29L116.22 12.29L116.22 12.29Q115.33 12.29 115.01 11.20L115.01 11.20L115.01 11.20Q114.94 11.01 114.94 10.62L114.94 10.62L114.94 10.62Q114.94 9.86 115.65 9.60L115.65 9.60L115.65 9.60Q118.85 8.26 120.38 5.76L120.38 5.76L120.38 5.76Q121.92 3.26 122.37-0.42L122.37-0.42L122.37-0.42Q122.82-4.10 122.82-10.37L122.82-10.37L122.82-32.90L122.82-32.90Q122.75-34.50 122.53-35.49L122.53-35.49L122.53-35.49Q122.30-36.48 121.41-37.15L121.41-37.15L121.41-37.15Q120.51-37.82 118.66-37.82L118.66-37.82L118.27-37.82L118.27-37.82Q117.63-37.82 117.34-38.05L117.34-38.05L117.34-38.05Q117.06-38.27 116.99-39.17L116.99-39.17L116.99-39.17Q116.99-39.74 117.31-40.16L117.31-40.16L117.31-40.16Q117.63-40.58 118.14-40.58L118.14-40.58L118.14-40.58Q122.24-40.38 125.76-40.38L125.76-40.38L125.76-40.38Q129.66-40.38 133.76-40.58L133.76-40.58L133.76-40.58Q134.34-40.58 134.62-40.16L134.62-40.16L134.62-40.16Q134.91-39.74 134.91-39.17L134.91-39.17L134.91-39.17Q134.85-38.21 134.50-38.02L134.50-38.02L134.50-38.02Q134.14-37.82 133.25-37.82L133.25-37.82L133.25-37.82Q131.39-37.82 130.50-37.15L130.50-37.15L130.50-37.15Q129.60-36.48 129.38-35.49L129.38-35.49L129.38-35.49Q129.15-34.50 129.09-32.90L129.09-32.90L129.09-8.19L129.09-8.19Q129.09 0.06 126.18 5.34L126.18 5.34L126.18 5.34Q123.26 10.62 116.48 12.29L116.48 12.29ZM154.62 0.77L154.62 0.77Q150.27 0.77 146.88-1.31L146.88-1.31L146.88-1.31Q143.49-3.39 141.60-6.82L141.60-6.82L141.60-6.82Q139.71-10.24 139.71-14.08L139.71-14.08L139.71-14.08Q139.71-18.88 141.95-22.43L141.95-22.43L141.95-22.43Q144.19-25.98 147.65-27.87L147.65-27.87L147.65-27.87Q151.10-29.76 154.62-29.76L154.62-29.76L154.62-29.76Q158.98-29.76 162.37-27.68L162.37-27.68L162.37-27.68Q165.76-25.60 167.65-22.18L167.65-22.18L167.65-22.18Q169.54-18.75 169.54-14.91L169.54-14.91L169.54-14.91Q169.54-10.11 167.26-6.56L167.26-6.56L167.26-6.56Q164.99-3.01 161.54-1.12L161.54-1.12L161.54-1.12Q158.08 0.77 154.62 0.77L154.62 0.77ZM154.62-1.60L154.62-1.60Q158.98-1.60 160.99-5.31L160.99-5.31L160.99-5.31Q163.01-9.02 163.01-14.91L163.01-14.91L163.01-14.91Q163.01-20.42 160.93-23.90L160.93-23.90L160.93-23.90Q158.85-27.39 154.62-27.39L154.62-27.39L154.62-27.39Q150.21-27.39 148.22-23.74L148.22-23.74L148.22-23.74Q146.24-20.10 146.24-14.21L146.24-14.21L146.24-14.21Q146.24-8.70 148.29-5.15L148.29-5.15L148.29-5.15Q150.34-1.60 154.62-1.60L154.62-1.60ZM178.37 0.90L178.37 0.90Q177.79 0.90 177.47 0.54L177.47 0.54L177.47 0.54Q177.15 0.19 177.15-0.38L177.15-0.38L177.15-37.76L177.15-37.76Q177.15-39.42 177.06-40.19L177.06-40.19L177.06-40.19Q176.96-40.96 176.26-41.54L176.26-41.54L176.26-41.54Q175.55-42.11 173.89-42.11L173.89-42.11L173.89-42.11Q173.12-42.11 172.74-42.34L172.74-42.34L172.74-42.34Q172.35-42.56 172.35-43.39L172.35-43.39L172.35-43.39Q172.35-43.78 172.61-44.13L172.61-44.13L172.61-44.13Q172.86-44.48 173.38-44.54L173.38-44.54L173.38-44.54Q177.41-45.12 180.29-46.21L180.29-46.21L180.29-46.21Q181.18-46.53 181.76-46.59L181.76-46.59L181.95-46.59L181.95-46.59Q182.98-46.59 182.98-45.38L182.98-45.38L182.98-26.05L183.17-26.05L183.17-26.05Q185.02-27.90 187.36-28.83L187.36-28.83L187.36-28.83Q189.70-29.76 192.00-29.76L192.00-29.76L192.00-29.76Q195.78-29.76 198.85-27.84L198.85-27.84L198.85-27.84Q201.92-25.92 203.68-22.50L203.68-22.50L203.68-22.50Q205.44-19.07 205.44-14.72L205.44-14.72L205.44-14.72Q205.44-10.43 203.42-6.88L203.42-6.88L203.42-6.88Q201.41-3.33 198.02-1.28L198.02-1.28L198.02-1.28Q194.62 0.77 190.78 0.77L190.78 0.77L190.78 0.77Q185.09 0.77 180.93-2.37L180.93-2.37L180.61-2.37L180.61-2.37Q180.35-1.86 180.03-0.96L180.03-0.96L180.03-0.96Q179.71-0.06 179.33 0.42L179.33 0.42L179.33 0.42Q178.94 0.90 178.37 0.90L178.37 0.90ZM190.21-1.41L190.21-1.41Q194.11-1.41 196.51-4.96L196.51-4.96L196.51-4.96Q198.91-8.51 198.91-14.46L198.91-14.46L198.91-14.46Q198.91-19.46 196.61-23.01L196.61-23.01L196.61-23.01Q194.30-26.56 189.76-26.56L189.76-26.56L189.76-26.56Q185.73-26.56 182.98-23.62L182.98-23.62L182.98-6.72L182.98-6.72Q183.17-5.70 184.10-4.45L184.10-4.45L184.10-4.45Q185.02-3.20 186.59-2.30L186.59-2.30L186.59-2.30Q188.16-1.41 190.21-1.41L190.21-1.41ZM222.02 0.77L222.02 0.77Q216.90 0.77 213.70-1.02L213.70-1.02L213.70-1.02Q210.50-2.82 210.50-6.08L210.50-6.08L210.50-6.08Q210.50-7.94 211.62-9.09L211.62-9.09L211.62-9.09Q212.74-10.24 214.53-10.24L214.53-10.24L214.53-10.24Q215.55-10.24 216.35-9.66L216.35-9.66L216.35-9.66Q217.15-9.09 217.15-8.77L217.15-8.77L217.15-8.77Q217.15-8.70 216.42-7.94L216.42-7.94L216.42-7.94Q215.68-7.17 215.68-5.76L215.68-5.76L215.68-5.76Q215.68-3.84 217.44-2.72L217.44-2.72L217.44-2.72Q219.20-1.60 222.53-1.60L222.53-1.60L222.53-1.60Q225.54-1.60 227.23-2.91L227.23-2.91L227.23-2.91Q228.93-4.22 228.93-6.59L228.93-6.59L228.93-6.59Q228.93-8.19 227.97-9.22L227.97-9.22L227.97-9.22Q227.01-10.24 225.57-10.82L225.57-10.82L225.57-10.82Q224.13-11.39 221.57-12.16L221.57-12.16L221.57-12.16Q218.43-13.06 216.45-13.95L216.45-13.95L216.45-13.95Q214.46-14.85 213.06-16.64L213.06-16.64L213.06-16.64Q211.65-18.43 211.65-21.31L211.65-21.31L211.65-21.31Q211.65-24 213.31-25.92L213.31-25.92L213.31-25.92Q214.98-27.84 217.63-28.80L217.63-28.80L217.63-28.80Q220.29-29.76 223.23-29.76L223.23-29.76L223.23-29.76Q227.01-29.76 229.79-28.16L229.79-28.16L229.79-28.16Q232.58-26.56 232.58-23.68L232.58-23.68L232.58-23.68Q232.58-21.95 231.52-20.74L231.52-20.74L231.52-20.74Q230.46-19.52 228.74-19.52L228.74-19.52L228.74-19.52Q227.71-19.52 226.91-20.10L226.91-20.10L226.91-20.10Q226.11-20.67 226.11-20.99L226.11-20.99L226.11-20.99Q226.11-21.06 226.62-21.50L226.62-21.50L226.62-21.50Q227.14-21.95 227.55-22.56L227.55-22.56L227.55-22.56Q227.97-23.17 227.97-24L227.97-24L227.97-24Q227.84-25.73 226.24-26.69L226.24-26.69L226.24-26.69Q224.64-27.65 222.46-27.65L222.46-27.65L222.46-27.65Q220.03-27.65 218.21-26.53L218.21-26.53L218.21-26.53Q216.38-25.41 216.38-23.42L216.38-23.42L216.38-23.42Q216.38-21.63 217.15-20.58L217.15-20.58L217.15-20.58Q217.92-19.52 219.46-18.88L219.46-18.88L219.46-18.88Q220.99-18.24 224.32-17.15L224.32-17.15L224.32-17.15Q227.71-16.06 229.63-15.14L229.63-15.14L229.63-15.14Q231.55-14.21 232.67-12.64L232.67-12.64L232.67-12.64Q233.79-11.07 233.79-8.51L233.79-8.51L233.79-8.51Q233.79-5.89 232.26-3.74L232.26-3.74L232.26-3.74Q230.72-1.60 228.03-0.42L228.03-0.42L228.03-0.42Q225.34 0.77 222.02 0.77L222.02 0.77Z" fill="#ccc"></path></g></g><style>text {
  font-size: 64px;
  font-family: Arial Black;
  dominant-baseline: central;
  text-anchor: middle;
}</style></svg>